HIERARCHY
ROOT reference
{
  OFFSET 0 0 0
  CHANNELS 6 Xposition Yposition Zposition Zrotation Xrotation Yrotation
  JOINT Hips
  {
    OFFSET 8.35532 92.7254 82.8447
    CHANNELS 6 Xposition Yposition Zposition Zrotation Xrotation Yrotation
    JOINT Spine
    {
      OFFSET 0 7.86299 0
      CHANNELS 6 Xposition Yposition Zposition Zrotation Xrotation Yrotation
      JOINT Spine1
      {
        OFFSET 0 22.6654 0
        CHANNELS 6 Xposition Yposition Zposition Zrotation Xrotation Yrotation
        JOINT Neck
        {
          OFFSET 0 22.5723 2.05203
          CHANNELS 6 Xposition Yposition Zposition Zrotation Xrotation Yrotation
          JOINT Head
          {
            OFFSET 0 13.4246 -1.9178
            CHANNELS 6 Xposition Yposition Zposition Zrotation Xrotation Yrotation
            End Site
            {
              OFFSET 0 23.9725 0
            }
          }
        }
        JOINT LeftShoulder
        {
          OFFSET 3.7941 20.1358 -0.319195
          CHANNELS 6 Xposition Yposition Zposition Zrotation Xrotation Yrotation
          JOINT LeftArm
          {
            OFFSET 12.7665 0 0
            CHANNELS 6 Xposition Yposition Zposition Zrotation Xrotation Yrotation
            JOINT LeftForeArm
            {
              OFFSET 28.396 0 0
              CHANNELS 6 Xposition Yposition Zposition Zrotation Xrotation Yrotation
              JOINT LeftHand
              {
                OFFSET 28.7929 0 0
                CHANNELS 6 Xposition Yposition Zposition Zrotation Xrotation Yrotation
                End Site
                {
                  OFFSET 14.3835 0 0
                }
              }
            }
          }
        }
        JOINT RightShoulder
        {
          OFFSET -3.85764 20.1358 -0.319195
          CHANNELS 6 Xposition Yposition Zposition Zrotation Xrotation Yrotation
          JOINT RightArm
          {
            OFFSET -12.7665 0 0
            CHANNELS 6 Xposition Yposition Zposition Zrotation Xrotation Yrotation
            JOINT RightForeArm
            {
              OFFSET -28.396 0 0
              CHANNELS 6 Xposition Yposition Zposition Zrotation Xrotation Yrotation
              JOINT RightHand
              {
                OFFSET -28.7929 0 0
                CHANNELS 6 Xposition Yposition Zposition Zrotation Xrotation Yrotation
                End Site
                {
                  OFFSET -14.3835 0 0
                }
              }
            }
          }
        }
      }
    }
    JOINT LeftUpLeg
    {
      OFFSET 9.58901 0 0
      CHANNELS 6 Xposition Yposition Zposition Zrotation Xrotation Yrotation
      JOINT LeftLeg
      {
        OFFSET 0 -41.7092 0
        CHANNELS 6 Xposition Yposition Zposition Zrotation Xrotation Yrotation
        JOINT LeftFoot
        {
          OFFSET 0 -41.5308 0
          CHANNELS 6 Xposition Yposition Zposition Zrotation Xrotation Yrotation
          JOINT LeftToeBase
          {
            OFFSET 0 -6.23286 14.3835
            CHANNELS 6 Xposition Yposition Zposition Zrotation Xrotation Yrotation
            End Site
            {
              OFFSET 0 0 3.8356
            }
          }
        }
      }
    }
    JOINT RightUpLeg
    {
      OFFSET -9.58901 0 0
      CHANNELS 6 Xposition Yposition Zposition Zrotation Xrotation Yrotation
      JOINT RightLeg
      {
        OFFSET 0 -41.7092 0
        CHANNELS 6 Xposition Yposition Zposition Zrotation Xrotation Yrotation
        JOINT RightFoot
        {
          OFFSET 0 -41.5308 0
          CHANNELS 6 Xposition Yposition Zposition Zrotation Xrotation Yrotation
          JOINT RightToeBase
          {
            OFFSET 0 -6.23286 14.3835
            CHANNELS 6 Xposition Yposition Zposition Zrotation Xrotation Yrotation
            End Site
            {
              OFFSET 0 0 3.8356
            }
          }
        }
      }
    }
  }
}
MOTION
Frames:	8
Frame Time:	0.004
0 0 0 0 0 -0 -4.00842 85.9262 -134.796 -3.31344 2.64803 7.31297 0 7.86299 2.84217e-014 3.42829 -6.56781 -2.57901 -1.77636e-015 22.6654 2.84217e-014 2.52835 7.89377 -2.96138 8.88178e-016 22.5723 2.05203 7.3197 32.3548 -6.68615 1.77636e-015 13.4246 -1.9178 4.23509 16.9162 -5.82052 3.7941 20.1358 -0.319195 -16.9398 39.489 -0.727488 12.7665 0 0 -9.90293 36.6342 -45.5567 28.396 2.84217e-014 0 -5.88227 -8.88279 -26.4556 28.7929 1.42109e-014 0 13.1391 -8.84026 12.3468 -3.85764 20.1358 -0.319195 11.4577 44.0045 14.3787 -12.7665 2.84217e-014 2.84217e-014 10.1201 32.6687 34.8418 -28.396 0 0 3.83479 -12.6039 24.6316 -28.7929 1.42109e-014 0 -8.32127 -12.9971 -5.95637 9.58901 0 0 3.7018 11.5322 -1.84525 0 -41.7092 0 -4.19473 10.4244 -6.19927 -2.22045e-016 -41.5308 -2.84217e-014 -1.18765 -14.0763 15.3931 7.10543e-015 -6.23286 14.3835 3.97569e-016 1.59028e-015 3.18055e-015 -9.58901 0 0 0.87259 -16.595 8.29771 0 -41.7092 0 5.10902 1.68724 -4.75533 -1.77636e-015 -41.5308 1.42109e-014 -1.3563 6.07927 -15.3813 3.55271e-015 -6.23286 14.3835 1.49089e-016 7.95139e-016 7.95139e-016 
0 0 0 0 0 -0 -4.0515 86.0367 -134.488 -3.3095 2.64864 7.3016 0 7.86299 0 3.46271 -6.53018 -2.58556 0 22.6654 0 2.53298 7.92253 -2.96145 1.77636e-015 22.5723 2.05203 7.35832 32.3569 -6.699 1.77636e-015 13.4246 -1.9178 4.32752 16.8491 -5.82554 3.7941 20.1358 -0.319195 -16.9327 39.7113 -0.670282 12.7665 0 2.84217e-014 -10.1055 36.5145 -45.7192 28.396 1.42109e-014 0 -5.90608 -8.27285 -26.1861 28.7929 -1.42109e-014 0 12.206 -8.32353 12.3362 -3.85764 20.1358 -0.319195 11.4091 44.067 14.4709 -12.7665 0 0 10.0233 32.605 34.9578 -28.396 0 1.42109e-014 3.86175 -12.7204 24.5009 -28.7929 0 0 -8.61756 -13.0921 -6.0566 9.58901 -1.42109e-014 0 3.83765 11.3704 -1.83409 0 -41.7092 -2.84217e-014 -4.37273 10.9581 -5.78889 -8.88178e-016 -41.5308 0 -1.76 -13.6355 15.0589 0 -6.23286 14.3835 -3.97569e-016 0 -0 -9.58901 -1.42109e-014 0 0.900194 -16.4138 8.21818 0 -41.7092 0 5.14588 1.75958 -4.72848 0 -41.5308 0 -1.26003 5.94165 -15.2714 0 -6.23286 14.3835 1.10348e-032 -7.95139e-016 7.95139e-016 
0 0 0 0 0 -0 -4.1043 86.1384 -134.173 -3.28291 2.64832 7.28582 0 7.86299 0 3.41749 -6.49793 -2.57929 8.88178e-016 22.6654 -1.42109e-014 2.64401 7.96502 -2.96055 -8.88178e-016 22.5723 2.05203 7.38413 32.3315 -6.7193 -3.55271e-015 13.4246 -1.9178 4.34358 16.8018 -5.84272 3.7941 20.1358 -0.319195 -16.9218 39.8696 -0.701555 12.7665 -2.84217e-014 0 -10.103 36.6831 -45.8711 28.396 0 -1.42109e-014 -5.77637 -7.59793 -26.1503 28.7929 -1.42109e-014 0 11.0263 -7.73759 12.4078 -3.85764 20.1358 -0.319195 11.3147 44.0481 14.5652 -12.7665 -1.42109e-014 0 10.0154 32.5825 35.0293 -28.396 -1.42109e-014 1.42109e-014 3.90461 -12.8509 24.3603 -28.7929 0 0 -8.94249 -13.1968 -6.2264 9.58901 0 0 3.97938 11.2524 -1.96119 0 -41.7092 0 -4.62162 11.4245 -5.23198 0 -41.5308 0 -2.29534 -13.1774 14.7419 0 -6.23286 14.3835 -3.97569e-016 -3.18055e-015 -0 -9.58901 -1.42109e-014 -2.84217e-014 0.928817 -16.2208 8.16853 0 -41.7092 -1.42109e-014 5.15161 1.85082 -4.55878 1.77636e-015 -41.5308 0 -1.18047 5.73365 -15.2977 -3.55271e-015 -6.23286 14.3835 -7.95139e-016 7.95139e-016 -0 
0 0 0 0 0 -0 -4.15786 86.2375 -133.866 -3.25066 2.64709 7.26458 0 7.86299 0 3.39747 -6.48179 -2.57379 8.88178e-016 22.6654 0 2.67633 8.01798 -2.95386 8.88178e-016 22.5723 2.05203 7.44857 32.315 -6.72326 0 13.4246 -1.9178 4.40673 16.7535 -5.83621 3.7941 20.1358 -0.319195 -16.8278 40.0955 -0.726206 12.7665 1.42109e-014 -2.84217e-014 -10.0991 36.7559 -46.0825 28.396 1.42109e-014 -1.42109e-014 -5.65511 -6.88502 -26.1077 28.7929 -1.42109e-014 0 10.019 -7.09831 12.4759 -3.85764 20.1358 -0.319195 11.2579 44.0283 14.6632 -12.7665 0 0 9.98825 32.6121 35.1171 -28.396 2.84217e-014 -1.42109e-014 3.83876 -12.961 24.1925 -28.7929 0 0 -8.71253 -13.299 -6.2322 9.58901 0 -2.84217e-014 4.12821 11.1828 -2.03609 0 -41.7092 0 -4.88685 11.7415 -4.37848 8.88178e-016 -41.5308 -2.84217e-014 -2.87322 -12.6236 14.0931 0 -6.23286 14.3835 1.59028e-015 1.59028e-015 6.36111e-015 -9.58901 0 0 0.968655 -16.0544 8.08225 -3.55271e-015 -41.7092 -1.42109e-014 5.13689 1.97037 -4.31837 1.77636e-015 -41.5308 0 -1.09859 5.52219 -15.36 3.55271e-015 -6.23286 14.3835 5.46658e-016 -2.38542e-015 -7.95139e-016 
0 0 0 0 0 -0 -4.2142 86.3328 -133.549 -3.20832 2.63776 7.26293 3.55271e-015 7.86299 0 3.35317 -6.43438 -2.58445 -8.88178e-016 22.6654 2.84217e-014 2.73142 8.05638 -2.96537 8.88178e-016 22.5723 2.05203 7.46184 32.3291 -6.77037 -1.77636e-015 13.4246 -1.9178 4.45865 16.636 -5.87757 3.7941 20.1358 -0.319195 -16.777 40.1997 -0.734284 12.7665 0 0 -10.1497 36.9352 -46.2009 28.396 1.42109e-014 0 -5.31581 -6.01383 -25.9884 28.7929 0 1.42109e-014 8.26642 -6.35306 12.2268 -3.85764 20.1358 -0.319195 11.1909 43.986 14.7706 -12.7665 1.42109e-014 0 9.95793 32.6704 35.1759 -28.396 0 0 3.81018 -13.0532 24.0933 -28.7929 0 0 -8.62609 -13.3755 -6.38083 9.58901 -1.42109e-014 0 4.27939 11.0474 -2.09468 0 -41.7092 0 -5.27644 12.3828 -3.37294 1.77636e-015 -41.5308 0 -3.12751 -12.2477 13.628 -7.10543e-015 -6.23286 14.3835 -7.95139e-016 1.59028e-015 -0 -9.58901 -2.84217e-014 2.84217e-014 1.0006 -15.7904 7.83304 0 -41.7092 0 5.08794 1.96067 -3.83569 1.77636e-015 -41.5308 0 -1.01419 5.34124 -15.4744 0 -6.23286 14.3835 -3.47873e-016 -7.95139e-016 7.95139e-016 
0 0 0 0 0 -0 -4.26711 86.4214 -133.238 -3.13035 2.63689 7.26501 -3.55271e-015 7.86299 0 3.26414 -6.39656 -2.59759 0 22.6654 0 2.77609 8.08845 -2.97636 1.77636e-015 22.5723 2.05203 7.56658 32.3609 -6.79616 3.55271e-015 13.4246 -1.9178 4.43134 16.4976 -5.87936 3.7941 20.1358 -0.319195 -16.6918 40.4107 -0.736067 12.7665 -1.42109e-014 0 -10.1049 37.0727 -46.3922 28.396 1.42109e-014 -1.42109e-014 -5.04956 -5.51402 -25.9293 28.7929 0 0 6.66039 -5.95994 12.2524 -3.85764 20.1358 -0.319195 11.1077 44.0214 14.8751 -12.7665 1.42109e-014 -2.84217e-014 9.88168 32.6701 35.3015 -28.396 -1.42109e-014 0 3.82761 -13.1813 23.9871 -28.7929 0 0 -8.6991 -13.4923 -6.47612 9.58901 -1.42109e-014 0 4.386 10.9092 -2.1927 -3.55271e-015 -41.7092 -2.84217e-014 -5.54176 12.8657 -2.79124 -1.77636e-015 -41.5308 0 -3.58517 -11.7291 13.2772 0 -6.23286 14.3835 -7.95139e-016 -3.18055e-015 -3.18055e-015 -9.58901 -2.84217e-014 2.84217e-014 0.962941 -15.6268 7.66464 0 -41.7092 1.42109e-014 5.13461 2.13217 -3.28967 -1.77636e-015 -41.5308 -1.42109e-014 -0.971565 5.01867 -15.7848 3.55271e-015 -6.23286 14.3835 -4.96962e-017 0 -0 
0 0 0 0 0 -0 -4.31659 86.5046 -132.927 -3.04633 2.64872 7.2695 3.55271e-015 7.86299 -2.84217e-014 3.15373 -6.3764 -2.60834 8.88178e-016 22.6654 0 2.90701 8.11213 -2.99027 0 22.5723 2.05203 7.50879 32.3365 -6.77817 0 13.4246 -1.9178 4.47632 16.51 -5.87114 3.7941 20.1358 -0.319195 -16.6608 40.5619 -0.800591 12.7665 1.42109e-014 0 -10.0906 37.2827 -46.4735 28.396 2.84217e-014 0 -4.80625 -5.29723 -25.8532 28.7929 0 -7.10543e-015 5.18533 -5.83735 12.3564 -3.85764 20.1358 -0.319195 10.9226 44.0711 14.9874 -12.7665 -2.84217e-014 0 9.80699 32.7192 35.4646 -28.396 -1.42109e-014 0 3.78073 -13.3542 23.9203 -28.7929 0 -7.10543e-015 -9.0813 -13.5988 -6.90481 9.58901 0 -2.84217e-014 4.50191 10.7336 -2.27066 0 -41.7092 -2.84217e-014 -5.87218 13.4011 -2.11382 1.77636e-015 -41.5308 -2.84217e-014 -4.01687 -11.2045 12.9144 0 -6.23286 14.3835 -0 0 3.18055e-015 -9.58901 -1.42109e-014 -2.84217e-014 0.981024 -15.5071 7.42222 0 -41.7092 -1.42109e-014 5.05076 2.38258 -2.79268 -1.77636e-015 -41.5308 0 -0.868205 4.65463 -15.9384 0 -6.23286 14.3835 5.46658e-016 0 -3.97569e-016 
0 0 0 0 0 -0 -4.38033 86.5782 -132.607 -2.94728 2.64408 7.28849 -5.32907e-015 7.86299 0 3.01289 -6.34817 -2.63322 0 22.6654 1.42109e-014 2.9909 8.16239 -3.01382 0 22.5723 2.05203 7.5631 32.2313 -6.76914 1.77636e-015 13.4246 -1.9178 4.4518 16.5898 -5.86592 3.7941 20.1358 -0.319195 -16.5651 40.7994 -0.762549 12.7665 1.42109e-014 0 -10.0162 37.3644 -46.7139 28.396 0 -1.42109e-014 -4.70288 -5.45466 -25.7825 28.7929 -1.42109e-014 0 4.26483 -6.03721 13.1565 -3.85764 20.1358 -0.319195 10.8359 44.0083 15.1194 -12.7665 -1.42109e-014 0 9.79691 32.8372 35.5106 -28.396 0 -1.42109e-014 3.64711 -13.5013 23.8553 -28.7929 1.42109e-014 0 -8.57631 -13.744 -6.93012 9.58901 0 -2.84217e-014 4.62632 10.5727 -2.28422 0 -41.7092 2.84217e-014 -6.17751 13.9273 -1.62057 0 -41.5308 0 -4.44181 -10.6521 12.5821 0 -6.23286 14.3835 -7.95139e-016 0 -0 -9.58901 0 0 0.971508 -15.3282 7.16519 -3.55271e-015 -41.7092 0 5.00042 2.55165 -2.29089 1.77636e-015 -41.5308 0 -0.880799 4.3009 -16.0713 0 -6.23286 14.3835 5.96354e-016 0 -0 
